<svg width="500" height="500" xmlns="http://www.w3.org/2000/svg">
 <!-- Created with Method Draw - http://github.com/duopixel/Method-Draw/ -->

 <g>
  <title>background</title>
  <rect x="-1" y="-1" width="502" height="502" id="canvas_background" fill="none"/>
  <g id="canvasGrid" display="none">
   <rect id="svg_1" width="100%" height="100%" x="0" y="0" stroke-width="0" fill="url(#gridpattern)"/>
  </g>
 </g>
 <g>
  <title>Layer 1</title>
  <path fill="none" stroke="#000" stroke-width="3" stroke-opacity="null" fill-opacity="null" id="svg_2"/>
  <path fill="#0e100d" stroke="#0e100d" stroke-width="3" d="m451.260488,241.984027c-19.618977,-3.299778 -40.038396,-5.472404 -56.618963,-6.060483l-2.924061,-0.098013c0.669757,-1.470198 1.176159,-2.466666 1.339514,-2.613686c0.359382,-0.29404 0.653421,-1.53554 0.686092,-2.74437c0,-0.669757 0.29404,-2.842383 0.751435,-5.717437c4.492272,0.163355 10.454742,0.29404 16.956285,0.343046c25.107717,0.196026 51.375257,2.221633 69.393352,5.407062c10.732446,1.894922 14.277257,1.82958 6.354523,-0.098013c-8.020748,-1.943929 -31.805286,-4.802647 -50.754507,-6.044148c-12.725382,-0.865783 -30.972174,-1.192494 -41.720956,-1.012803c0.310375,-1.862251 0.669757,-3.936864 1.045474,-6.060483c1.519205,-8.216774 2.025606,-16.482555 2.058277,-32.932438c0.032671,-25.516105 -1.339514,-32.540385 -9.654301,-49.414993c-3.381456,-6.893596 -7.203971,-12.741717 -11.826927,-18.03443c4.034877,-11.908605 3.936864,-30.351424 -0.245033,-46.523603c-3.446798,-13.264454 -4.655627,-14.113902 -16.678581,-11.565559c-10.193374,2.172626 -18.361141,5.129358 -28.832219,10.405736c-4.949667,2.499337 -11.777921,6.387194 -16.727588,9.441939c-12.905072,-4.541279 -26.251204,-7.547017 -40.495791,-9.164235c-14.440613,-1.633553 -49.839717,-0.718764 -62.401743,1.600882c-12.284322,2.270639 -23.343479,5.04768 -33.357162,8.347458c-4.998674,-3.087416 -12.251651,-7.252977 -17.430016,-9.866663c-10.520084,-5.292713 -18.687852,-8.23311 -28.913897,-10.405736c-11.990283,-2.564679 -13.231783,-1.698896 -16.662245,11.565559c-4.247239,16.384541 -4.27991,35.137735 -0.081678,47.013669c0.490066,1.355849 0.784106,2.319646 0.898454,3.071081c-17.021627,21.432222 -22.575709,45.412787 -18.883878,78.884297c0.963797,8.723176 2.45033,16.727588 4.524943,24.062243c-10.863131,-0.065342 -26.316547,0.326711 -37.473717,1.045474c-18.981891,1.257836 -42.76643,4.083884 -50.787178,6.027812c-7.906399,1.927593 -4.394259,1.992935 6.354523,0.114349c18.018095,-3.169094 44.30197,-5.227371 69.393352,-5.407062c4.737305,-0.016336 9.164235,-0.114349 12.970415,-0.212362c1.143487,3.871522 2.45033,7.563353 3.936864,11.075493l-0.114349,0.016336c-16.580568,0.571744 -36.983651,2.74437 -56.602628,6.044148c-14.718317,2.466666 -36.444578,7.399997 -38.976586,8.821189c-2.662692,1.486534 -0.490066,1.159823 10.912137,-1.731567c20.795136,-5.260042 47.830446,-9.294919 81.318292,-12.104631l3.740837,-0.326711c7.187635,16.694917 18.263128,29.436634 33.91257,39.368639c9.572623,6.093154 24.911691,12.349664 32.638398,13.329796c2.12362,0.261369 8.298452,1.53554 13.721849,2.809712c5.439733,1.274172 16.074166,3.185429 23.621183,4.27991l0.179691,0c-0.14702,0.098013 -0.277704,0.163355 -0.408388,0.261369c-9.147899,4.753641 -15.094034,12.153638 -19.09624,23.800874c-1.796909,0.539073 -4.034877,1.274172 -6.452536,2.107284c-8.641498,2.940396 -12.006618,3.544811 -20.762465,3.610153c-9.082557,0.065342 -11.238848,-0.326711 -16.662245,-2.875054c-7.890063,-3.675495 -15.241054,-10.438407 -20.141714,-18.508161c-8.184103,-13.493152 -22.330676,-23.033104 -34.124932,-23.033104c-10.079025,0 -11.990283,4.083884 -4.704634,10.046354c10.977479,8.968209 19.177918,18.116108 22.543038,25.107717c1.894922,3.920528 4.802647,9.981012 6.485207,13.460481c1.780573,3.708166 5.586753,8.739511 9.213242,12.21898c8.527149,8.135096 16.760259,12.022954 29.044581,13.852533c8.23311,1.20883 10.258716,1.20883 19.978359,-0.032671c4.688298,-0.571744 8.641498,-1.241501 12.186309,-2.074613c0,3.98587 0,8.576156 0,13.966882c0,28.848554 -0.343046,38.127138 -1.486534,40.838837c-2.156291,5.162029 -6.991609,10.471078 -11.696243,12.856066c-4.688298,2.384988 -6.142161,5.015009 -4.165561,7.432668c1.094481,1.306843 3.201765,1.53554 10.275051,1.078145c13.42781,-0.833112 22.918755,-5.799115 27.754074,-14.554961c1.551876,-2.809712 1.911258,-8.461807 2.401324,-37.86577c0.522737,-31.903299 0.751435,-34.97438 2.826048,-39.531994c1.257836,-2.711699 3.071081,-5.652095 4.083884,-6.452536c1.698896,-1.404856 1.813244,1.372185 1.813244,39.531994c-0.016336,42.113009 -0.441059,47.19336 -4.655627,55.295785c-0.947461,1.845915 -2.74437,4.247239 -4.002206,5.390726c-2.205297,2.009271 -3.136423,7.154964 -1.600882,8.70684c2.532008,2.515672 15.224718,-1.437527 22.150985,-6.893596c11.794256,-9.343926 13.199112,-17.070634 13.297125,-72.872821l0.049007,-32.736412l3.577482,0.343046l3.577482,0.326711l0.588079,42.815437c0.669757,48.206163 0.76777,48.908591 8.968209,58.219846c4.655627,5.260042 9.343926,8.167767 16.972621,10.438407c10.209709,3.071081 13.28079,-1.666225 6.419865,-9.882999c-7.465339,-8.935538 -7.824721,-12.349664 -7.416333,-65.244126c0.277704,-33.91257 0.277704,-33.91257 2.466666,-31.93597c4.606621,4.181897 5.48874,11.042821 5.48874,42.848108c0,39.499323 1.127152,43.256496 15.077699,50.150092c6.517878,3.185429 8.347458,3.577482 16.694917,3.610153c8.886531,0.032671 9.425604,-0.098013 9.752314,-2.417659c0.277704,-1.878586 -0.816777,-3.152758 -4.966003,-5.684766c-5.439733,-3.348785 -9.213242,-7.628695 -11.581894,-13.019421c-0.898454,-2.074613 -1.502869,-15.665778 -1.911258,-43.648549c-0.588079,-39.090935 -0.718764,-40.871508 -3.152758,-46.997334c-3.283442,-8.23311 -8.298452,-14.734652 -14.652975,-19.047234c-1.649889,-1.078145 -3.299778,-1.9766 -5.439733,-2.646357c2.630021,-0.261369 5.178365,-0.539073 7.64503,-0.898454c25.679461,-3.414127 39.25429,-6.25651 50.150092,-10.471078c23.04944,-8.870195 38.63354,-23.604848 47.079011,-44.497997c0.751435,-1.862251 1.502869,-3.626489 2.139955,-5.04768l6.501543,0.539073c33.504182,2.826048 60.539492,6.860925 81.334628,12.137302c11.402203,2.89139 13.574829,3.234436 10.912137,1.715231c-2.483001,-1.38852 -24.209263,-6.305516 -38.911244,-8.772182l0.000001,0.000001zm-98.241906,-0.506402c-3.80618,8.363794 -14.424277,19.112576 -23.000433,23.327144c-8.461807,4.181897 -21.726261,7.367326 -36.754953,8.886531c-10.275051,1.045474 -67.580107,1.355849 -77.038382,0.424724c-31.31522,-3.071081 -48.859584,-9.098893 -61.797328,-21.170853c-12.251651,-11.467545 -17.969088,-27.03531 -16.972621,-46.196892c0.637086,-11.990283 3.528476,-19.520964 11.091828,-28.668864c6.87726,-8.331123 14.113902,-13.476816 22.641051,-16.090502c7.138629,-2.188962 29.044581,-2.384988 58.49755,-0.490066c13.019421,0.833112 23.784539,0.833112 36.787624,0c30.808819,-1.943929 51.375257,-1.731567 58.97128,0.62075c11.941276,3.691831 22.820742,13.623836 29.354956,26.855619c2.940396,5.913464 3.51214,8.429136 3.936864,17.5607c0.588079,12.578362 -1.584547,25.940829 -5.717437,34.941709l0.000001,0zm-155.350936,-54.005278c-17.528029,-3.071081 -27.541712,26.937297 -14.097567,42.260028c6.387194,7.269313 12.055625,8.461807 19.145247,4.051213c6.566885,-4.100219 10.128032,-11.761585 10.128032,-21.69359c0,-13.248119 -6.027812,-22.984097 -15.175712,-24.617651zm106.393338,1.796909c-17.528029,-3.071081 -27.558047,26.904626 -14.113902,42.243693c6.40353,7.269313 12.055625,8.478143 19.161582,4.034877c6.550549,-4.083884 10.128032,-11.761585 10.128032,-21.69359c0,-13.199112 -6.027812,-22.967762 -15.175712,-24.58498zm-47.144353,59.003952c-0.375717,1.20883 -2.205297,3.005738 -4.051213,3.969535c-4.671963,2.401324 -8.037083,1.568211 -12.970415,-2.924061c-3.054745,-2.760705 -4.443265,-4.214568 -5.374391,-1.323178c-0.865783,2.679028 4.57395,8.053419 8.772182,9.703308c3.855186,1.53554 6.615892,1.584547 10.797788,-0.163355c4.149226,-1.731567 7.775715,-6.387194 7.775715,-9.409268c0,-2.809712 -4.034877,-2.679028 -4.949667,0.14702l0.000001,-0.000001zm-5.178365,-9.392932c2.662692,-2.352317 3.267107,-7.187635 0.718764,-9.752314s-7.726708,-2.172626 -9.752314,0.702428c-2.352317,3.36512 -1.094481,5.929799 0.588079,8.657833c2.613686,2.025606 6.125826,2.433995 8.445471,0.392053z" id="svg_6"/>
 </g>
</svg>