<svg width="500" height="500" xmlns="http://www.w3.org/2000/svg">
 <!-- Created with Method Draw - http://github.com/duopixel/Method-Draw/ -->

 <g>
  <title>background</title>
  <rect x="-1" y="-1" width="502" height="502" id="canvas_background" fill="none"/>
 </g>
 <g>
  <title>Layer 1</title>
  <path fill="none" stroke="#0f0f00" stroke-width="1.5" opacity="0.5" d="m16.875814,85.374131" id="svg_3"/>
  <path stroke="#0e100d" fill="none" stroke-width="10" fill-opacity="null" d="m6.876107,493.474454l452.371755,-467.166183c-103.363844,118.872517 -131.996138,166.59384 -452.371755,467.166183z" id="svg_14"/>
  <path stroke="#0e100d" fill="none" stroke-width="10" fill-opacity="null" d="m44.037412,457.963832l-24.787417,-57.364974l31.161163,43.90891l-16.996999,-56.656657l31.161163,41.076076l-11.331336,-73.653656l103.398402,-143.058061c0.708339,0.708316 29.036667,16.288898 30.453084,16.288898c1.416417,0 -21.246243,-29.744746 -21.954582,-30.453062c0.708339,0.708316 153.681313,-180.592992 152.972974,-181.301308c0.708339,0.708316 145.182822,0.708316 144.474483,0c0.708339,0.708316 29.036668,138.100714 29.036668,138.100714c0,0 -39.659665,42.492493 -40.368004,41.784177c0.708339,0.708316 -71.5289,-41.784177 -72.237239,-42.492499c0.708339,0.708322 63.030664,54.532145 62.322326,53.823829c0.708338,0.708316 -74.361734,-34.702097 -75.070073,-35.410413c0.708339,0.708316 60.19783,48.866477 59.489491,48.158161c0.708339,0.708316 -183.425798,159.346958 -184.134136,158.638642c0.708338,0.708316 -36.118492,-13.455849 -36.826831,-14.164165c0.708339,0.708316 26.203833,24.7874 25.495495,24.079084c0.708338,0.708316 -88.525899,68.696304 -87.109482,68.696304c1.416417,0 -67.987988,-22.662661 -68.696326,-23.370983c0.708338,0.708322 50.282911,40.367981 49.574578,39.659665c0.708333,0.708316 -57.364742,-30.452847 -58.073075,-31.161163c0.708333,0.708316 43.200832,43.200809 42.492493,42.492493c0.708339,0.708316 -62.111659,-29.613157 -64.44682,-27.620012z" id="svg_17"/>
 </g>
</svg>